<?xml version="1.0" encoding="utf-8" ?>
<svg xmlns="http://www.w3.org/2000/svg" xmlns:xlink="http://www.w3.org/1999/xlink" width="1024" height="1024">
	<path fill="white" d="M0 0L1024 0L1024 1024L0 1024L0 0Z"/>
	<path fill="#251E20" d="M456.829 126.713C463.161 126.183 469.753 126.418 476.105 126.453Q484.821 126.556 493.524 127.057Q502.226 127.558 510.897 128.457Q519.567 129.355 528.188 130.649Q536.808 131.943 545.36 133.63Q553.912 135.316 562.379 137.392Q570.845 139.468 579.207 141.928Q587.57 144.389 595.811 147.229Q604.052 150.069 612.155 153.283C685.391 182.974 747.791 232.15 791.798 298.046C802.158 313.559 812.247 330.244 819.534 347.44L914.426 347.416L941.263 347.404C946.153 347.399 951.419 347.024 956.263 347.698C959.565 348.158 962.389 349.226 964.923 351.453Q965.551 352.003 966.12 352.613Q966.69 353.223 967.195 353.887Q967.701 354.551 968.136 355.263Q968.572 355.974 968.935 356.726Q969.297 357.478 969.581 358.262Q969.866 359.047 970.07 359.856Q970.275 360.665 970.397 361.491Q970.519 362.316 970.557 363.15C970.779 368.023 968.781 372.445 965.397 375.899Q964.658 376.661 963.815 377.309Q962.973 377.956 962.046 378.474Q961.119 378.992 960.126 379.369Q959.134 379.747 958.097 379.977C951.184 381.494 942.688 380.589 935.585 380.581L895.163 380.529L895.164 396.482L906.082 396.467L906.38 483.776C915.708 483.911 925.071 483.714 934.402 483.675C938.706 483.657 943.285 483.305 947.549 483.852C950.156 484.186 953.367 484.882 955.39 486.685C958.149 489.143 958.818 494.688 958.863 498.154C958.967 506.266 959.711 530.327 958.015 537.176C957.601 538.846 956.671 540.262 955.439 541.452C953.965 542.875 952.509 543.498 950.514 543.824C945.502 544.644 939.858 544.134 934.773 544.114L906.409 543.993Q905.97 585.968 906.3 627.943C903.163 628.296 899.951 628.259 896.794 628.337C896.6 634.282 896.803 640.284 896.856 646.234C909.92 646.659 923.104 646.347 936.178 646.255C942.748 646.208 950.393 645.4 956.807 646.714C959.015 647.166 960.908 648.185 962.58 649.688C965.871 652.645 968.264 657.277 968.428 661.719C968.59 666.093 967.315 669.264 964.239 672.408C961.443 675.266 957.82 676.667 953.895 677.104C948.54 677.701 942.819 677.184 937.43 677.098Q925.383 676.984 913.335 677.029L819.233 677.023Q816.262 683.009 813.096 688.894Q809.929 694.779 806.571 700.557Q803.213 706.334 799.667 711.998Q796.121 717.662 792.39 723.207Q788.659 728.751 784.748 734.17Q780.838 739.589 776.751 744.876Q772.664 750.164 768.405 755.314Q764.147 760.464 759.721 765.471Q755.295 770.478 750.707 775.337Q746.12 780.196 741.374 784.902Q736.629 789.607 731.732 794.154Q726.835 798.701 721.79 803.085Q716.746 807.468 711.561 811.683Q706.375 815.899 701.054 819.941Q695.732 823.984 690.281 827.849Q684.83 831.714 679.254 835.398C634.967 865.59 579.402 884.614 526.704 892.84Q517.419 894.227 508.079 895.173Q498.739 896.118 489.365 896.621Q479.99 897.123 470.603 897.181Q461.215 897.24 451.835 896.853C442.915 896.573 434.026 895.609 425.111 895.384C404.155 894.857 383.069 895.367 362.093 895.214L109.38 895.098L109.376 726.291L109.361 671.302C109.351 660.878 109.755 650.254 109.045 639.864C108.58 633.043 106.08 626.461 104.212 619.915Q101.587 610.66 99.4798 601.273Q97.0696 590.617 95.2613 579.842Q93.4531 569.068 92.2525 558.209Q91.0519 547.35 90.4628 536.441Q89.8737 525.531 89.8979 514.606C89.9324 484.588 92.9212 455.365 99.5547 426.063Q102.172 414.712 105.481 403.542C107.173 397.62 109.338 391.587 109.765 385.41C110.46 375.356 109.999 365.018 109.999 354.935L109.999 299.53L110.007 127.989L326.533 128.011L396.573 128.123C407.952 128.171 419.459 128.746 430.821 128.355C439.485 128.057 448.178 127.298 456.829 126.713Z"/>
	<path fill="white" d="M838.717 380.548L857.361 380.537C857.399 384.99 857.687 389.608 857.385 394.044C857.294 395.377 857.531 395.6 856.483 396.501C852.934 396.417 849.305 396.186 845.769 396.542C845.491 397.492 845.356 397.936 844.577 398.568L843.966 398.22L844.649 398.451C842.533 392.539 840.668 386.517 838.717 380.548Z"/>
	<path fill="white" d="M846.162 628.303L858.472 628.354L858.477 646.222L851.272 646.222L839.008 646.156L846.162 628.303Z"/>
	<path fill="#FBB041" d="M860.559 380.927L892.059 380.907Q892.1 388.697 891.976 396.487C881.525 396.823 870.986 396.554 860.526 396.549L860.559 380.927Z"/>
	<path fill="#FBB041" d="M861.627 628.478L893.642 628.504Q893.735 637.314 893.683 646.124L861.668 646.15L861.627 628.478Z"/>
	<defs>
		<linearGradient id="gradient_0" gradientUnits="userSpaceOnUse" x1="931.1048" y1="526.83337" x2="923.40521" y2="498.88834">
			<stop offset="0" stop-color="#9BD0FD"/>
			<stop offset="1" stop-color="#78E1FF"/>
		</linearGradient>
	</defs>
	<path fill="url(#gradient_0)" d="M923.585 498.116C926.846 497.815 929.917 497.757 933.017 498.975C937.071 500.567 940.428 503.657 942.092 507.716C943.573 511.329 943.593 515.244 942.025 518.832C939.958 523.561 936.023 526.225 931.42 528.104C928.183 528.83 924.732 528.925 921.597 527.724Q920.907 527.458 920.246 527.123Q919.586 526.789 918.963 526.39Q918.34 525.991 917.76 525.532Q917.18 525.072 916.649 524.557Q916.118 524.041 915.642 523.475Q915.165 522.909 914.748 522.298Q914.331 521.686 913.977 521.036Q913.624 520.386 913.337 519.704Q913.01 518.956 912.761 518.18Q912.512 517.403 912.343 516.605Q912.174 515.807 912.087 514.996Q912 514.185 911.995 513.369Q911.991 512.553 912.069 511.741Q912.147 510.93 912.308 510.13Q912.468 509.33 912.708 508.55Q912.949 507.771 913.267 507.02C915.333 502.245 918.952 499.943 923.585 498.116Z"/>
	<path fill="#251E20" d="M923.917 502.089C926.128 501.756 928.444 501.607 930.62 502.219C933.557 503.045 936.146 504.997 937.611 507.688Q937.881 508.184 938.1 508.705Q938.319 509.226 938.484 509.767Q938.649 510.307 938.758 510.862Q938.868 511.416 938.92 511.979Q938.973 512.541 938.969 513.106Q938.964 513.672 938.903 514.233Q938.841 514.795 938.723 515.348Q938.604 515.9 938.431 516.438C937.116 520.414 934.401 522.4 930.807 524.223C928.503 524.714 925.827 524.919 923.57 524.139Q923.029 523.957 922.509 523.721Q921.988 523.486 921.495 523.198Q921.001 522.911 920.539 522.576Q920.077 522.24 919.652 521.859Q919.226 521.479 918.841 521.057Q918.456 520.635 918.116 520.177Q917.776 519.718 917.484 519.227Q917.192 518.737 916.951 518.219Q916.701 517.692 916.505 517.143Q916.308 516.594 916.167 516.028Q916.026 515.463 915.942 514.886Q915.857 514.309 915.83 513.726Q915.803 513.144 915.834 512.561Q915.865 511.979 915.953 511.403Q916.041 510.826 916.186 510.262Q916.331 509.697 916.531 509.149C917.914 505.425 920.457 503.711 923.917 502.089Z"/>
	<path fill="#C40F20" d="M924.061 505.031C925.183 504.911 926.366 504.772 927.493 504.889C929.826 505.131 932.521 506.585 933.911 508.483C935.23 510.284 935.629 512.407 935.144 514.576C934.444 517.703 932.087 519.386 929.475 520.906C925.896 521.716 924.702 521.252 921.525 519.436C920.793 518.453 920.107 517.409 919.532 516.325C918.564 514.496 918.183 512.236 918.844 510.238C919.721 507.593 921.739 506.313 924.061 505.031Z"/>
	<path fill="#B3AEB0" d="M794.147 649.118C822.993 648.414 852.05 649.388 880.922 649.374L927.53 649.338C935.08 649.306 942.773 648.818 950.308 649.12C952.654 649.214 955.001 649.509 957.197 650.376Q957.803 650.61 958.381 650.906Q958.96 651.202 959.504 651.556Q960.049 651.911 960.553 652.32Q961.058 652.729 961.517 653.188Q961.977 653.648 962.386 654.152Q962.795 654.657 963.149 655.202Q963.503 655.746 963.799 656.325Q964.095 656.903 964.329 657.509Q964.555 658.092 964.719 658.696Q964.884 659.3 964.985 659.918Q965.086 660.535 965.123 661.16Q965.159 661.785 965.131 662.41Q965.103 663.035 965.01 663.654Q964.918 664.273 964.762 664.879Q964.605 665.485 964.387 666.071Q964.169 666.658 963.892 667.219C962.035 670.985 959.435 672.551 955.548 673.787C947.935 674.388 940.104 674.015 932.461 674.011L891.294 674.003L830.586 674.017C819.719 674.024 808.761 674.344 797.908 673.99C795.512 673.912 792.908 673.884 790.716 672.822C787.588 671.307 785.442 668.349 784.484 665.059C783.538 661.811 783.68 658.073 785.364 655.085C787.407 651.463 790.256 650.12 794.147 649.118Z"/>
	<path fill="#B3AEB0" d="M795.63 350.581C803.494 349.996 811.532 350.295 819.418 350.312L859.667 350.379L921.25 350.27C931.564 350.269 941.97 349.995 952.276 350.36C954.628 350.444 957.237 350.564 959.394 351.577Q960.039 351.886 960.648 352.26Q961.258 352.634 961.826 353.069Q962.393 353.503 962.914 353.994Q963.434 354.484 963.901 355.026Q964.368 355.567 964.777 356.154Q965.186 356.741 965.532 357.366Q965.879 357.991 966.159 358.649Q966.44 359.307 966.651 359.99C967.687 363.284 967.453 367.028 965.782 370.078C963.591 374.079 960.042 376.152 955.806 377.46C943.895 378.153 931.777 377.732 919.843 377.733L862.095 377.717Q840.598 377.613 819.101 377.821C812.442 377.847 805.632 378.169 798.985 377.862C796.969 377.769 794.918 377.46 793.033 376.711C789.737 375.402 787.136 372.974 785.896 369.62Q785.654 368.951 785.478 368.261Q785.302 367.571 785.194 366.867Q785.087 366.164 785.048 365.453Q785.01 364.742 785.041 364.031Q785.072 363.32 785.172 362.615Q785.272 361.91 785.44 361.218Q785.609 360.527 785.844 359.855Q786.079 359.183 786.378 358.537C788.352 354.314 791.372 352.173 795.63 350.581Z"/>
	<path fill="#B3AEB0" d="M848.089 399.625L903.525 399.488C903.49 428.145 903.119 456.85 903.448 485.501Q886.51 485.738 869.57 485.671C863.856 485.645 856.627 484.771 851.066 485.888C858.947 487.602 873.718 486.32 882.245 486.299C898.583 486.258 914.923 486.664 931.262 486.724C936.812 486.744 944.814 485.683 949.972 487.372C952.393 488.165 953.753 490.136 955.07 492.183L955.444 492.775C956.005 502.995 955.673 513.332 955.642 523.568L943.107 523.554C945.84 518.829 947.349 513.873 945.844 508.418C944.534 503.672 941.098 499.646 936.835 497.259Q936.403 497.021 935.96 496.806Q935.517 496.59 935.063 496.396Q934.61 496.203 934.147 496.032Q933.685 495.861 933.215 495.714Q932.744 495.567 932.267 495.443Q931.79 495.319 931.307 495.219Q930.824 495.119 930.337 495.044Q929.85 494.968 929.36 494.917Q928.87 494.866 928.377 494.839Q927.885 494.812 927.392 494.81Q926.899 494.807 926.407 494.83Q925.914 494.852 925.424 494.899Q924.933 494.946 924.445 495.017Q923.957 495.088 923.474 495.184Q922.99 495.279 922.512 495.398Q922.034 495.518 921.562 495.661C916.841 497.096 912.62 500.483 910.377 504.901C907.971 509.642 908.146 515.34 909.95 520.252C910.368 521.389 910.909 522.493 911.429 523.585L873.858 523.599C868.056 523.613 860.88 522.804 855.284 524.083C874.138 525.347 893.324 524.469 912.222 524.73C915.878 528.847 920.109 531.654 925.748 532.104C931.026 532.525 936.357 530.536 940.199 526.908C941.033 526.12 941.788 525.238 942.534 524.366C946.856 524.325 951.235 524.427 955.546 524.117C955.609 527.884 956.635 536.287 953.513 538.858C951.922 540.168 949.279 540.655 947.298 540.905C942.864 541.463 938.119 541.1 933.645 541.064C923.565 540.982 913.432 540.663 903.356 540.834C903.181 568.876 903.079 596.985 903.406 625.024L847.835 625.064L847.941 566.453L845.505 566.318C840.3 565.867 829.81 567.865 825.66 564.362C824.147 563.084 823.891 561.426 823.666 559.555C822.556 550.3 823.625 535.696 823.709 525.773Q824.019 495.246 823.571 464.72C823.543 460.643 822.671 443.285 824.626 441.258C828.026 437.732 841.339 439.254 846.219 439.316L846.644 439.283C847.695 438.491 847.697 438.411 847.841 437.034C848.274 432.899 847.959 428.392 847.967 424.217L848.089 399.625Z"/>
	<path fill="#251E20" d="M846.219 439.316C853.827 439.516 878.869 437.282 884.015 441.55C885.637 444.788 885.653 458.93 884.377 462.584C883.984 463.71 883.396 464.372 882.522 465.149C876.294 467.264 857.701 465.917 850.052 466.029C850.01 474.694 850.063 483.371 849.895 492.034C855.169 492.013 875.398 490.568 878.584 494.445C879.039 495 879.34 495.737 879.54 496.42C880.438 500.822 881.222 513.314 878.854 516.965C878.517 517.483 878.116 517.947 877.712 518.413C876.715 519.099 875.717 519.907 874.62 520.412C866.578 519.703 858.156 520.464 850.062 520.359C850.026 523.476 850.178 526.723 849.914 529.821L849.982 539.621C855.355 539.677 860.744 539.785 866.118 539.711C869.912 539.659 874.454 539.001 878.163 539.744C879.736 540.059 881.238 540.672 882.375 541.836C886.146 545.696 884.987 554.446 884.68 559.5Q884.568 561.272 884.327 563.032C883.099 563.916 881.795 564.946 880.332 565.392C874.695 567.114 855.167 566.293 847.941 566.453L845.505 566.318C840.3 565.867 829.81 567.865 825.66 564.362C824.147 563.084 823.891 561.426 823.666 559.555C822.556 550.3 823.625 535.696 823.709 525.773Q824.019 495.246 823.571 464.72C823.543 460.643 822.671 443.285 824.626 441.258C828.026 437.732 841.339 439.254 846.219 439.316Z"/>
	<defs>
		<linearGradient id="gradient_1" gradientUnits="userSpaceOnUse" x1="872.59058" y1="460.51434" x2="858.09741" y2="497.5592">
			<stop offset="0" stop-color="#E1D5D9"/>
			<stop offset="1" stop-color="white"/>
		</linearGradient>
	</defs>
	<path fill="url(#gradient_1)" d="M847.533 463.474C858.426 463.465 869.395 463.179 880.277 463.637C881.199 464.116 881.863 464.343 882.522 465.149C876.294 467.264 857.701 465.917 850.052 466.029C850.01 474.694 850.063 483.371 849.895 492.034C855.169 492.013 875.398 490.568 878.584 494.445C879.039 495 879.34 495.737 879.54 496.42C879.399 498.374 879.639 501.438 878.603 503.05C877.876 502.232 877.716 501.448 877.432 500.409C877.294 498.827 877.22 497.667 876.366 496.27C873.607 493.895 852.633 495.02 847.592 495.046L847.533 463.474Z"/>
	<path fill="#00AEED" d="M854.806 497.501C861.455 497.269 868.206 497.261 874.852 497.576C875.099 503.478 875.027 509.366 874.962 515.271C871.397 515.405 867.865 515.496 864.299 515.381C861.653 514.51 848.773 515.165 848.241 514.659C849.777 514.674 850.881 514.672 852.328 514.039C855.987 509.359 849.908 504.192 850.825 499.451C852.049 498.025 853.028 498.013 854.806 497.501Z"/>
	<path fill="white" d="M846.219 439.316C853.827 439.516 878.869 437.282 884.015 441.55C885.637 444.788 885.653 458.93 884.377 462.584C883.984 463.71 883.396 464.372 882.522 465.149C881.863 464.343 881.199 464.116 880.277 463.637C882.481 461.499 882.05 458.799 882.088 455.881C882.146 451.454 882.221 446.724 881.752 442.327C871.395 441.577 860.754 442.023 850.364 442.012C843.184 442.005 834.822 441.149 827.83 442.525C826.652 443.578 826.696 445.898 826.613 447.475C825.684 464.996 826.579 485.2 826.584 503.075C826.589 520.221 825.672 538.497 826.534 555.505C826.647 557.748 826.65 560.848 828.094 562.606C829.804 563.175 831.378 563.427 833.175 563.514C843.318 564.005 853.67 563.445 863.837 563.411C867.633 563.398 871.44 563.922 875.227 563.851C876.342 563.83 877.745 563.681 878.774 563.217C880.244 562.553 881.206 561.588 881.632 560.001C882.415 557.079 882.449 546.406 881.079 543.806C880.553 542.808 878.931 542.419 877.902 542.246C870.822 541.054 852.341 543.487 847.455 541.697C846.148 534.875 847.161 525.209 847.226 518.067C854.58 518.001 870.471 519.61 876.916 516.826C878.092 511.833 877.379 505.574 877.432 500.409C877.716 501.448 877.876 502.232 878.603 503.05C879.639 501.438 879.399 498.374 879.54 496.42C880.438 500.822 881.222 513.314 878.854 516.965C878.517 517.483 878.116 517.947 877.712 518.413C876.715 519.099 875.717 519.907 874.62 520.412C866.578 519.703 858.156 520.464 850.062 520.359C850.026 523.476 850.178 526.723 849.914 529.821L849.982 539.621C855.355 539.677 860.744 539.785 866.118 539.711C869.912 539.659 874.454 539.001 878.163 539.744C879.736 540.059 881.238 540.672 882.375 541.836C886.146 545.696 884.987 554.446 884.68 559.5Q884.568 561.272 884.327 563.032C883.099 563.916 881.795 564.946 880.332 565.392C874.695 567.114 855.167 566.293 847.941 566.453L845.505 566.318C840.3 565.867 829.81 567.865 825.66 564.362C824.147 563.084 823.891 561.426 823.666 559.555C822.556 550.3 823.625 535.696 823.709 525.773Q824.019 495.246 823.571 464.72C823.543 460.643 822.671 443.285 824.626 441.258C828.026 437.732 841.339 439.254 846.219 439.316Z"/>
	<path fill="#00AEED" d="M828.933 444.794C845.717 444.137 862.736 444.651 879.547 444.61L879.552 461.352L845.376 460.991L845.345 486.313L844.705 486.029C843.835 489.588 845.075 493.239 844.236 496.756L843.643 497.106C843.38 496.96 843.121 496.808 842.855 496.668C841.515 495.966 840.313 496.013 838.914 496.532C836.541 497.411 834.021 499.997 831.514 499.97C830.499 499.042 830.275 498.344 830.132 496.964C829.841 494.168 830.777 490.792 829.096 488.319C828.18 474.008 828.951 459.154 828.933 444.794Z"/>
	<defs>
		<linearGradient id="gradient_2" gradientUnits="userSpaceOnUse" x1="854.7373" y1="561.79669" x2="849.63373" y2="495.71732">
			<stop offset="0" stop-color="#0E5ABD"/>
			<stop offset="1" stop-color="#19A5EF"/>
		</linearGradient>
	</defs>
	<path fill="url(#gradient_2)" d="M829.096 488.319C830.777 490.792 829.841 494.168 830.132 496.964C830.275 498.344 830.499 499.042 831.514 499.97C834.021 499.997 836.541 497.411 838.914 496.532C840.313 496.013 841.515 495.966 842.855 496.668C843.121 496.808 843.38 496.96 843.643 497.106L844.236 496.756C845.075 493.239 843.835 489.588 844.705 486.029L845.345 486.313L845.372 497.365C848.504 497.394 851.683 497.313 854.806 497.501C853.028 498.013 852.049 498.025 850.825 499.451C849.908 504.192 855.987 509.359 852.328 514.039C850.881 514.672 849.777 514.674 848.241 514.659C848.773 515.165 861.653 514.51 864.299 515.381C857.937 515.612 851.504 515.428 845.134 515.434C845.247 524.948 845.593 534.524 845.182 544.031Q862.432 543.958 879.681 544.142C879.938 549.883 879.726 555.648 879.625 561.392C870.557 561.693 861.432 561.468 852.357 561.435C844.612 561.407 836.768 561.629 829.042 561.094C828.372 552.945 828.924 544.393 828.942 536.19L829.096 488.319Z"/>
	<path fill="#00AEED" d="M110.804 893.904L110.838 716.25L110.759 669.22C110.663 660.384 109.72 650.73 110.697 641.983L111.376 641.565C112.012 646.944 114.493 652.546 116.496 657.573Q118.334 662.188 120.29 666.755Q122.247 671.321 124.321 675.835Q126.396 680.349 128.586 684.807Q130.777 689.266 133.083 693.667Q135.388 698.067 137.807 702.406Q140.225 706.745 142.756 711.021Q145.286 715.296 147.926 719.504Q150.566 723.712 153.315 727.85Q156.063 731.988 158.918 736.054Q161.772 740.12 164.732 744.11Q167.691 748.1 170.752 752.013Q173.814 755.925 176.975 759.757Q180.137 763.588 183.397 767.337Q186.657 771.085 190.013 774.748Q193.369 778.411 196.819 781.985Q200.269 785.56 203.811 789.044Q207.352 792.528 210.982 795.919Q214.613 799.31 218.33 802.606Q222.047 805.901 225.848 809.1Q229.649 812.298 233.532 815.397Q237.415 818.496 241.377 821.493Q245.338 824.49 249.377 827.384Q253.415 830.277 257.526 833.065Q261.638 835.853 265.821 838.533Q270.003 841.214 274.254 843.785Q278.505 846.356 282.821 848.816Q287.136 851.276 291.515 853.624Q295.893 855.971 300.33 858.204Q304.768 860.438 309.262 862.555Q313.756 864.672 318.303 866.673Q322.85 868.673 327.448 870.555Q332.045 872.437 336.69 874.199C353.705 880.637 371.221 885.344 388.952 889.327C394.372 890.544 407.85 892.094 411.55 893.687L411.151 893.897C383.934 894.714 356.551 893.713 329.307 893.812L110.804 893.904Z"/>
	<path fill="#FBB041" d="M152.028 770.087C157.665 770.156 162.649 771.195 167.156 774.788Q167.574 775.121 167.974 775.475Q168.375 775.829 168.757 776.202Q169.14 776.576 169.503 776.968Q169.866 777.36 170.209 777.769Q170.552 778.179 170.874 778.605Q171.197 779.032 171.497 779.474Q171.798 779.916 172.076 780.372Q172.354 780.829 172.608 781.298Q172.863 781.768 173.094 782.25Q173.325 782.732 173.532 783.225Q173.738 783.718 173.92 784.22Q174.101 784.723 174.258 785.234Q174.414 785.745 174.544 786.263Q174.675 786.781 174.779 787.306Q174.884 787.83 174.962 788.358Q175.04 788.887 175.091 789.419C175.711 795.588 173.838 802.083 169.801 806.823C166.028 811.253 160.938 813.196 155.272 813.741C149.911 813.843 145.219 813.258 140.73 810.053C135.877 806.587 132.727 800.895 131.849 795.041Q131.77 794.502 131.719 793.96Q131.668 793.418 131.644 792.874Q131.621 792.33 131.625 791.785Q131.628 791.241 131.66 790.697Q131.691 790.154 131.75 789.612Q131.809 789.071 131.895 788.533Q131.981 787.996 132.094 787.463Q132.207 786.93 132.347 786.404Q132.487 785.878 132.653 785.359Q132.82 784.841 133.012 784.332Q133.204 783.822 133.422 783.323Q133.64 782.824 133.883 782.337Q134.126 781.849 134.393 781.375Q134.66 780.901 134.951 780.44Q135.242 779.98 135.555 779.535Q135.869 779.09 136.205 778.661C140.139 773.557 145.739 770.898 152.028 770.087Z"/>
	<path fill="#FBB041" d="M153.184 830.143C157.788 830.229 162.137 831.327 165.962 833.976C171.127 837.554 174.37 843.309 175.261 849.487C176.115 855.415 174.443 861.246 170.749 865.944C166.399 871.476 160.885 873.705 154.112 874.473C149.206 874.596 143.971 872.709 140.137 869.706Q139.7 869.361 139.281 868.995Q138.862 868.629 138.461 868.243Q138.061 867.856 137.68 867.451Q137.299 867.045 136.939 866.62Q136.579 866.196 136.24 865.754Q135.902 865.312 135.586 864.854Q135.27 864.396 134.977 863.923Q134.684 863.449 134.415 862.962Q134.147 862.475 133.902 861.975Q133.658 861.475 133.439 860.963Q133.22 860.451 133.027 859.93Q132.833 859.408 132.666 858.877Q132.499 858.346 132.359 857.807Q132.219 857.269 132.105 856.724Q131.992 856.179 131.906 855.629Q131.82 855.079 131.761 854.526C131.131 848.599 133.052 842.799 136.842 838.226C141.088 833.104 146.67 830.696 153.184 830.143Z"/>
	<path fill="#00AEED" d="M111.403 129.39L320.89 129.294L379.874 129.402C393.319 129.427 406.8 129.228 420.231 129.918C416.31 132.241 401.313 133.691 395.791 134.881C387.489 136.671 379.104 138.619 370.943 140.972Q365.491 142.532 360.087 144.25Q354.683 145.969 349.331 147.845Q343.979 149.72 338.685 151.751Q333.39 153.783 328.157 155.968Q322.924 158.153 317.757 160.49Q312.59 162.826 307.494 165.313Q302.397 167.8 297.376 170.435Q292.354 173.069 287.412 175.85Q282.469 178.63 277.61 181.553Q272.751 184.477 267.979 187.541Q263.207 190.605 258.527 193.807Q253.847 197.009 249.262 200.347Q244.677 203.684 240.192 207.154Q235.707 210.624 231.325 214.224Q226.943 217.824 222.668 221.55Q218.393 225.276 214.229 229.125C206.55 236.191 197.045 244 190.919 252.488C184.641 257.674 179.275 265.214 174.171 271.555Q166.809 280.811 159.993 290.476Q153.177 300.142 146.93 310.184Q140.683 320.226 135.026 330.612Q129.368 340.998 124.319 351.693C119.489 362.114 115.392 372.961 111.021 383.584L111.403 129.39Z"/>
	<path fill="#FBB041" d="M150.785 212.98C155.773 212.661 160.101 212.754 164.635 215.231Q165.103 215.491 165.557 215.775Q166.011 216.058 166.45 216.365Q166.889 216.671 167.312 216.999Q167.734 217.328 168.14 217.677Q168.545 218.027 168.932 218.396Q169.319 218.766 169.687 219.155Q170.055 219.544 170.402 219.951Q170.749 220.359 171.076 220.783Q171.402 221.207 171.706 221.648Q172.01 222.089 172.291 222.544Q172.572 222.999 172.83 223.469Q173.088 223.938 173.321 224.42Q173.554 224.901 173.763 225.394Q173.971 225.887 174.154 226.391Q174.337 226.894 174.494 227.405Q174.651 227.917 174.782 228.436Q174.91 228.951 175.011 229.472Q175.113 229.993 175.187 230.519Q175.261 231.044 175.308 231.573Q175.356 232.102 175.375 232.632Q175.395 233.162 175.388 233.693Q175.38 234.224 175.345 234.753Q175.31 235.283 175.248 235.81Q175.186 236.337 175.097 236.861Q175.007 237.384 174.891 237.902Q174.775 238.42 174.632 238.931Q174.49 239.442 174.321 239.945Q174.152 240.448 173.957 240.942Q173.763 241.436 173.543 241.919Q173.323 242.402 173.079 242.873Q172.834 243.345 172.566 243.803Q172.298 244.261 172.006 244.704C168.734 249.789 163.906 252.722 158.102 254.069C153.851 254.678 149.733 254.272 145.806 252.446Q145.346 252.227 144.896 251.985Q144.447 251.743 144.011 251.479Q143.574 251.216 143.151 250.931Q142.728 250.646 142.32 250.34Q141.911 250.035 141.518 249.71Q141.125 249.384 140.749 249.04Q140.373 248.696 140.014 248.334Q139.655 247.971 139.314 247.592Q138.974 247.212 138.652 246.816Q138.331 246.42 138.029 246.009Q137.728 245.597 137.447 245.171Q137.166 244.746 136.906 244.307Q136.647 243.867 136.409 243.416Q136.172 242.965 135.957 242.502Q135.742 242.04 135.55 241.567Q135.358 241.094 135.19 240.613Q135.007 240.116 134.85 239.61Q134.693 239.105 134.562 238.592Q134.431 238.078 134.326 237.559Q134.222 237.04 134.144 236.516Q134.067 235.992 134.016 235.465Q133.966 234.938 133.943 234.409Q133.919 233.88 133.923 233.35Q133.927 232.821 133.959 232.292Q133.99 231.764 134.048 231.237Q134.106 230.711 134.192 230.188Q134.277 229.666 134.389 229.148Q134.501 228.63 134.64 228.119Q134.779 227.608 134.943 227.105Q135.108 226.602 135.298 226.108Q135.489 225.613 135.704 225.13Q135.92 224.646 136.16 224.174C139.282 218.135 144.522 214.973 150.785 212.98Z"/>
	<path fill="#FBB041" d="M151.516 152.468C155.863 152.212 159.68 152.565 163.667 154.548Q164.149 154.79 164.617 155.056Q165.086 155.321 165.541 155.611Q165.995 155.9 166.435 156.212Q166.874 156.523 167.297 156.857Q167.721 157.191 168.126 157.546Q168.532 157.9 168.919 158.275Q169.306 158.65 169.674 159.044Q170.042 159.438 170.389 159.85Q170.736 160.262 171.062 160.691Q171.388 161.12 171.692 161.565Q171.996 162.01 172.276 162.47Q172.557 162.93 172.814 163.404Q173.072 163.877 173.304 164.363Q173.537 164.849 173.745 165.346Q173.953 165.843 174.136 166.35Q174.318 166.857 174.475 167.373Q174.635 167.879 174.768 168.393Q174.901 168.907 175.008 169.428Q175.114 169.948 175.193 170.473Q175.272 170.998 175.324 171.526Q175.375 172.055 175.399 172.585Q175.423 173.116 175.419 173.647Q175.416 174.178 175.384 174.708Q175.353 175.238 175.294 175.766Q175.235 176.293 175.148 176.817Q175.062 177.341 174.948 177.86Q174.835 178.378 174.694 178.89Q174.554 179.402 174.387 179.907Q174.22 180.411 174.027 180.905Q173.834 181.4 173.615 181.884Q173.397 182.368 173.153 182.84Q172.91 183.311 172.642 183.77C169.24 189.694 164.132 192.349 157.747 193.944C152.991 194.287 148.764 194.092 144.459 191.714Q143.988 191.448 143.531 191.159Q143.074 190.87 142.633 190.557Q142.191 190.245 141.766 189.91Q141.341 189.576 140.934 189.22Q140.527 188.864 140.138 188.488Q139.75 188.111 139.381 187.716Q139.012 187.32 138.664 186.906Q138.317 186.492 137.99 186.061Q137.664 185.629 137.36 185.182Q137.056 184.734 136.776 184.272Q136.495 183.809 136.239 183.333Q135.982 182.857 135.751 182.368Q135.519 181.88 135.312 181.38Q135.106 180.88 134.926 180.37Q134.745 179.86 134.591 179.342Q134.436 178.824 134.309 178.298Q134.183 177.805 134.082 177.307Q133.981 176.808 133.904 176.305Q133.828 175.802 133.776 175.296Q133.725 174.79 133.698 174.282Q133.671 173.774 133.67 173.266Q133.668 172.757 133.691 172.249Q133.715 171.741 133.763 171.234Q133.812 170.728 133.885 170.225Q133.958 169.721 134.056 169.222Q134.154 168.723 134.276 168.229Q134.399 167.735 134.545 167.248Q134.692 166.761 134.862 166.282Q135.033 165.803 135.227 165.332Q135.42 164.862 135.637 164.402Q135.854 163.942 136.093 163.493Q136.332 163.044 136.593 162.607C140.033 156.949 145.305 154.09 151.516 152.468Z"/>
	<path fill="#652D91" d="M163.59 739.967L778.45 739.897Q773.637 746.561 768.533 753.006Q763.429 759.45 758.045 765.662Q752.661 771.874 747.007 777.842Q741.353 783.809 735.44 789.52Q729.527 795.232 723.367 800.675Q717.208 806.119 710.813 811.285Q704.418 816.451 697.8 821.328Q691.183 826.205 684.356 830.785Q680.879 833.102 677.354 835.344Q673.828 837.587 670.255 839.752Q666.682 841.918 663.063 844.007Q659.445 846.096 655.782 848.106Q652.119 850.117 648.414 852.048Q644.709 853.98 640.964 855.831Q637.218 857.683 633.434 859.453Q629.649 861.224 625.828 862.913Q622.006 864.602 618.149 866.209Q614.292 867.815 610.401 869.339Q606.511 870.862 602.588 872.302Q598.666 873.741 594.714 875.096Q590.761 876.451 586.781 877.721Q582.8 878.991 578.793 880.175Q574.786 881.359 570.755 882.457Q566.724 883.555 562.669 884.566Q558.615 885.577 554.541 886.5Q550.466 887.424 546.372 888.26Q542.278 889.096 538.168 889.844Q534.057 890.592 529.931 891.252Q525.805 891.911 521.666 892.482Q517.527 893.053 513.377 893.535Q509.227 894.017 505.067 894.41Q500.907 894.802 496.74 895.106Q492.573 895.409 488.4 895.623Q484.227 895.836 480.051 895.961Q475.874 896.085 471.696 896.119Q467.518 896.154 463.34 896.098Q459.163 896.043 454.987 895.898Q450.811 895.753 446.64 895.519Q442.468 895.284 438.302 894.96Q434.137 894.636 429.979 894.223C417.432 893.073 405.006 891.715 392.623 889.334C380.436 886.99 368.444 883.592 356.603 879.908Q350.727 878.091 344.915 876.079Q339.103 874.067 333.361 871.863Q327.619 869.658 321.953 867.264Q316.288 864.869 310.706 862.287Q305.123 859.705 299.63 856.939Q294.137 854.172 288.739 851.224Q283.341 848.276 278.044 845.15Q272.747 842.024 267.557 838.723Q262.367 835.422 257.291 831.95Q252.214 828.478 247.255 824.839Q242.297 821.2 237.462 817.398Q232.628 813.595 227.923 809.634Q223.218 805.673 218.647 801.557Q214.077 797.441 209.646 793.175Q205.215 788.91 200.929 784.498Q196.643 780.087 192.506 775.536C182.096 764.199 172.238 752.711 163.59 739.967Z"/>
	<path fill="#EC2A7A" d="M420.231 129.918C420.381 129.955 420.53 129.996 420.681 130.03C426.717 131.359 446.942 128.511 454.734 128.189C471.475 127.499 488.417 127.541 505.111 129.079C622.985 139.945 723.956 201.327 790.757 298.483L368.006 298.503L228.319 298.5L182.486 298.488C173.637 298.48 164.636 298.75 155.807 298.262Q165.459 283.323 176.664 269.511C181.001 264.206 187.702 258.255 190.919 252.488C197.045 244 206.55 236.191 214.229 229.125Q218.393 225.276 222.668 221.55Q226.943 217.824 231.325 214.224Q235.707 210.624 240.192 207.154Q244.677 203.684 249.262 200.347Q253.847 197.009 258.527 193.807Q263.207 190.605 267.979 187.541Q272.751 184.477 277.61 181.553Q282.469 178.63 287.412 175.85Q292.354 173.069 297.376 170.435Q302.397 167.8 307.494 165.313Q312.59 162.826 317.757 160.49Q322.924 158.153 328.157 155.968Q333.39 153.783 338.685 151.751Q343.979 149.72 349.331 147.845Q354.683 145.969 360.087 144.25Q365.491 142.532 370.943 140.972C379.104 138.619 387.489 136.671 395.791 134.881C401.313 133.691 416.31 132.241 420.231 129.918Z"/>
	<path fill="#FBB041" d="M154.968 299.374C186.929 298.924 218.978 299.423 250.948 299.414L460.102 299.432L687.927 299.427C722.402 299.473 756.914 299.168 791.385 299.636C801.591 314.267 811.546 330.894 818.227 347.47C809.261 347.498 794.93 345.206 787.715 351.417C784.085 354.543 782.197 359.135 782.073 363.877C781.949 368.596 783.589 373.388 787.026 376.698Q787.731 377.371 788.52 377.943Q789.309 378.516 790.167 378.979Q791.025 379.441 791.937 379.785Q792.849 380.129 793.799 380.348C801.518 382.092 828.11 380.688 837.529 380.57C840.281 388.162 845.198 399.838 846.252 407.668C847.634 417.932 845.892 428.876 846.644 439.283L846.219 439.316C841.339 439.254 828.026 437.732 824.626 441.258C822.671 443.285 823.543 460.643 823.571 464.72Q824.019 495.246 823.709 525.773C823.625 535.696 822.556 550.3 823.666 559.555C823.891 561.426 824.147 563.084 825.66 564.362C829.81 567.865 840.3 565.867 845.505 566.318L845.383 604.977C845.373 611.929 846.142 620.048 844.686 626.843C843.274 633.434 839.8 639.62 837.567 645.979C827.825 645.92 799.335 644.673 791.644 646.579C789.126 647.203 786.917 648.589 785.081 650.408C782.13 653.332 780.664 656.845 780.831 661.003C781.01 665.429 782.126 669.946 785.496 673.029C792.615 679.544 808.542 676.891 817.786 676.972C807.541 699.113 793.493 720.728 778.45 739.897L163.59 739.967C158.4 733.964 154.059 726.91 149.823 720.214C138.871 702.902 129.269 685.24 121.14 666.429C117.774 658.641 115.631 649.829 111.802 642.375L111.376 641.565C110.271 634.028 106.939 626.187 104.842 618.817C101.558 607.272 99.0477 595.386 96.9979 583.564C82.2365 498.424 93.948 409.321 134.96 332.795C141.023 321.48 147.563 309.862 154.968 299.374Z"/>
	<path fill="white" d="M415.004 440.153Q418.866 439.937 422.734 439.883C426.096 439.843 430.29 440.056 432.704 442.77C434.162 444.409 434.287 447.766 434.428 449.893C435.111 460.166 434.482 470.85 434.451 481.161Q434.478 509.71 434.093 538.257C441.406 538.241 451.728 537.203 458.637 538.807C460.89 539.331 462.632 540.489 463.803 542.513C466.103 546.49 465.769 553.294 464.611 557.662C463.702 561.086 462.262 562.852 459.223 564.6C453.504 565.84 421.212 565.782 415.401 564.518C411.854 563.746 410.355 561.156 408.573 558.29C408.152 552.036 408.43 545.598 408.436 539.326L408.454 505.812L408.434 468.339C408.433 461.66 408.158 454.836 408.528 448.173C408.62 446.525 408.765 445.173 409.655 443.732C410.921 441.683 412.746 440.747 415.004 440.153Z"/>
	<path fill="#251E20" d="M414.793 443.072C417.628 442.836 420.53 442.756 423.377 442.729C425.736 442.706 428.76 442.895 430.479 444.732C431.704 446.041 431.709 448.886 431.816 450.654C432.513 462.167 431.897 474.054 431.777 485.599L431.458 541.059C438.324 541.056 456.238 539.232 461.059 543.343C462.81 546.493 462.557 553.424 461.985 557.063C461.615 559.421 460.069 560.557 458.258 561.82C451.492 562.632 421.836 562.743 415.915 561.527C414.827 561.304 413.526 560.974 412.909 559.997C411.643 557.991 411.44 554.759 411.307 552.409C410.313 534.741 411.167 514.372 411.114 496.462C411.088 487.505 409.816 452.77 411.568 446.524C412.118 444.565 413.118 443.958 414.793 443.072Z"/>
	<path fill="#00AEED" d="M413.667 494.694C413.652 488.805 412.673 449.249 414.448 446.318C416.819 445.205 425.434 444.808 427.77 446.028C428.979 446.658 429.316 447.249 429.494 448.557C430.573 456.472 429.685 467.159 429.673 475.455C429.663 481.857 430.409 489.349 429.526 495.651C430.32 511.311 429.729 527.335 429.499 543.032C437.757 542.981 447.825 542.024 455.857 543.116C457.051 543.278 458.422 543.639 459.107 544.714C460.671 547.166 459.916 555.089 459.273 557.969C458 559.235 456.815 559.516 455.019 559.766C450.407 560.408 421.659 560.52 417.308 559.853C416.452 559.722 415.869 559.414 415.215 558.847C414.114 557.892 413.941 555.851 413.794 554.486C413.084 547.932 413.535 540.938 413.527 534.333Q413.492 514.513 413.667 494.694Z"/>
	<path fill="white" d="M803.64 441.129C805.7 440.767 807.9 440.703 809.807 441.693C811.669 442.659 812.304 444.452 812.795 446.36C814.082 451.368 814.758 463.669 811.765 468.114C809.634 471.28 802.298 471.245 798.783 472.054C790.303 474.006 783.086 479.782 778.578 487.164C774.001 494.659 772.496 504.646 774.684 513.149C777.33 523.434 784.009 529.599 792.865 534.834C792.845 528.643 791.773 499.179 794.127 495.711C795.467 493.735 798.521 493.026 800.724 492.825C805.112 492.424 814.479 491.373 817.85 494.432C820.705 497.023 819.63 532.474 819.649 539.097C819.684 544.677 821.478 557.246 818.877 561.814C817.873 563.575 816.108 564.562 814.187 565.038C802.732 567.877 784.879 562.362 775.159 556.01C761.859 547.317 752.46 532.869 749.222 517.389C746.008 502.022 748.306 484.628 757.067 471.435C768.187 454.69 784.125 445.036 803.64 441.129Z"/>
	<path fill="#251E20" d="M751.143 496.081C754.066 479.044 762.085 465.359 776.304 455.234C782.378 450.908 799.883 442.043 807.389 443.532C807.975 443.649 808.493 443.871 809.041 444.102C811.072 447.715 811.415 461.796 810.05 465.545C809.652 466.637 809.172 466.908 808.117 467.315C804.789 468.598 800.679 468.636 797.184 469.463C787.974 471.642 779.155 479.64 775.025 487.992C770.847 496.44 769.667 506.998 772.738 515.994C776.158 526.011 784.031 533.907 793.521 538.394C793.977 538.61 794.444 538.803 794.906 539.007L795.783 539.405Q795.994 525.329 795.864 511.253C795.855 507.25 795.502 502.929 795.851 498.955C795.931 498.042 796.336 497.133 797.023 496.509C798.825 494.87 811.523 494.918 814.121 495.599C815.082 495.85 815.452 496.069 816.104 496.779C817.837 503.542 816.694 522.526 816.753 530.544C816.819 539.351 817.56 548.591 817.005 557.348C816.923 558.641 816.75 559.675 816.113 560.826C811.767 563.999 801.152 562.337 796.1 561.565C782.712 559.518 769.784 550.393 761.846 539.606C755.205 530.582 751.552 519.772 750.754 508.633C750.162 504.498 750.639 500.198 751.143 496.081Z"/>
	<path fill="#00AEED" d="M757.44 482.081Q758.043 480.699 758.715 479.349Q759.386 478 760.124 476.685Q760.862 475.37 761.664 474.094Q762.466 472.817 763.331 471.582Q764.196 470.348 765.122 469.157Q766.047 467.967 767.03 466.824Q768.014 465.682 769.053 464.589Q770.092 463.497 771.184 462.458Q772.276 461.418 773.419 460.435Q774.562 459.451 775.752 458.526Q776.942 457.6 778.177 456.735Q779.411 455.87 780.688 455.068Q781.964 454.265 783.279 453.527Q784.594 452.789 785.943 452.118Q787.293 451.446 788.675 450.843Q790.056 450.239 791.466 449.705C796.899 447.649 802.368 446.347 808.17 446.027C808.465 452.307 808.337 458.606 808.304 464.891C795.893 466.138 785.31 470.273 777.168 480.115C775.157 482.547 773.734 485.3 772.215 488.048L771.523 488.203C771.119 488.689 770.841 489.088 770.561 489.664C770.477 489.837 770.401 490.014 770.321 490.19C764.929 483.711 761.437 487.382 758.098 485.453L757.44 482.081Z"/>
	<defs>
		<linearGradient id="gradient_3" gradientUnits="userSpaceOnUse" x1="779.69104" y1="556.13074" x2="788.66895" y2="488.64664">
			<stop offset="0" stop-color="#0F5BBB"/>
			<stop offset="1" stop-color="#13A3F4"/>
		</linearGradient>
	</defs>
	<path fill="url(#gradient_3)" d="M757.44 482.081L758.098 485.453C761.437 487.382 764.929 483.711 770.321 490.19C770.401 490.014 770.477 489.837 770.561 489.664C770.841 489.088 771.119 488.689 771.523 488.203L772.215 488.048C768.504 499.7 767.11 510.136 772.958 521.35C776.696 528.518 786.01 538.411 793.755 540.983C795.048 541.412 795.851 541.361 797.12 540.831C797.365 540.491 797.699 540.2 797.857 539.811C798.763 537.585 798.106 503.364 798.115 498.034C803.558 498.005 809.018 497.895 814.46 497.973C814.447 518.504 815.192 539.418 814.308 559.911C796.543 560.319 783.662 558.565 770.193 545.795C760.771 536.862 755.309 525.538 753.41 512.749C752.776 507.802 752.816 503.045 753.236 498.082C754.083 492.463 755.42 487.396 757.44 482.081Z"/>
	<path fill="white" d="M380.655 440.25C386.393 440.219 398.901 438.261 403.29 442.029C405.247 443.709 405.994 446.308 406.134 448.804C406.356 452.77 406.739 461.109 403.786 464.095C399.87 468.055 376.131 466.194 369.976 466.096C370.095 475.671 369.988 485.26 369.987 494.837C376.516 494.681 394.1 492.642 398.952 496.94C401.705 499.378 402.198 502.942 402.269 506.424C402.353 510.549 402.484 515.68 399.291 518.78C394.534 523.397 377.119 521.345 370.65 521.207C370.774 527.088 370.645 532.995 370.616 538.878C379.367 538.876 388.23 538.447 396.956 539.08C400.087 540.529 401.505 542.101 403.357 545C403.645 549.609 403.536 554.198 403.45 558.811C401.989 561.543 400.652 563.157 398.088 564.943C389.884 565.818 357.505 566.117 350.758 564.356C347.207 563.429 345.865 560.826 344.097 557.893C343.454 533.714 343.861 509.314 343.805 485.114L343.797 459.994C343.804 455.531 343.476 450.69 344.065 446.266C344.428 443.54 346.48 442.13 348.488 440.536C359.182 440.194 369.95 440.356 380.655 440.25Z"/>
	<path fill="#251E20" d="M346.928 446.25C347.41 445.038 347.579 444.387 348.816 443.728C351.148 442.486 396.856 442.373 400.128 443.518C401.611 444.037 402.614 445.344 403.136 446.772C404.298 449.957 404.166 457.39 402.781 460.47C402.102 461.979 400.691 462.934 399.148 463.397C395.684 464.434 372.5 463.67 367.156 463.662L367 497.985C372.366 497.909 393.865 496.395 397.414 499.134C399.933 501.077 399.125 509.763 398.97 512.739C398.899 514.106 398.747 515.503 397.636 516.426C393.726 519.674 373.441 518.138 367.513 518.074L367.493 541.903C372.524 541.88 395.927 540.607 398.8 543.275C401.001 545.318 400.836 550.461 400.743 553.321C400.672 555.539 400.458 559.116 398.779 560.823C396.794 562.841 359.39 562.444 353.852 562.058C351.767 561.912 349.855 561.254 348.567 559.505C348.065 558.823 347.676 557.984 347.434 557.18C346.516 552.257 347.032 546.687 347.025 541.685L346.953 513.973L346.68 468.911C346.643 461.567 345.987 453.527 346.928 446.25Z"/>
	<path fill="#00AEED" d="M348.779 446.485C353.617 444.662 394.096 445.04 400.002 446.366C401.047 447.386 401.106 448.666 401.135 450.088C401.209 453.723 400.963 457.665 400.306 461.236C388.854 461.828 376.416 461.988 365.007 460.936C365.012 467.468 365.406 474.265 364.94 480.766L365.046 500.443C375.424 500.408 386.044 499.941 396.396 500.464C396.501 504.152 397.613 511.897 395.639 514.977C388.782 517.57 370.624 513.891 365.357 516.339C365.867 525.515 365.562 534.854 365.47 544.045C373.023 544.015 391.085 542.781 397.507 544.975C399.12 547.873 398.046 556.07 397.961 559.608C388.427 560.293 378.686 559.976 369.119 560.011C364.066 560.03 358.373 560.561 353.38 559.865C352.395 559.728 351.422 559.386 350.727 558.635C349.741 557.567 349.44 556.053 349.118 554.692C350.107 550.395 349.419 544.459 349.416 540.007C349.406 525.409 348.87 510.8 349.147 496.206C348.769 479.753 350.055 462.862 348.779 446.485Z"/>
	<path fill="white" d="M323.725 439.693C327.971 439.86 330.639 440.247 334.351 442.599C336.855 444.187 339.381 446.587 339.871 449.648C340.239 451.942 339.408 454.02 338.275 455.975C335.32 461.068 330.756 465.486 326.953 469.964C317.722 480.836 307.605 491.745 299.411 503.411C307.645 513.939 316.476 523.708 325.463 533.595C330.906 539.584 337.175 545.629 341.675 552.356C342.451 553.517 342.866 554.57 342.853 555.981C342.832 558.347 342.172 560.503 340.431 562.167C335.401 566.974 325.033 565.571 318.605 565.443C311.615 561.072 291.11 534.211 284.291 525.835Q275.952 537.398 267.414 548.816C263.988 553.434 260.563 558.895 256.381 562.858C255.341 563.843 254.146 564.442 252.841 564.996C246.028 565.386 239.22 566.223 232.946 562.967C230.063 559.16 229.921 556.068 229.967 551.49C233.276 546.477 237.968 542.259 241.774 537.591L271.038 501.367Q259.307 487.14 247.359 473.094C242.6 467.464 236.609 461.502 233.071 455.038C232.094 453.253 231.763 451.147 231.801 449.127C231.844 446.839 232.586 444.752 234.28 443.167C238.955 438.793 248.683 440.267 254.534 440.63C259.721 444.756 263.541 450.736 267.66 455.878C273.92 463.695 280.224 471.616 286.753 479.205C289.445 474.126 293.049 469.547 296.588 465.037C302.242 457.834 310.604 445.176 318.364 440.966C320.009 440.073 321.896 439.913 323.725 439.693Z"/>
	<path fill="#251E20" d="M321.591 442.598C324.235 442.36 326.844 442.454 329.492 442.532C332.567 444.602 336.231 447.568 337.314 451.21C337.236 453.401 335.628 455.476 334.371 457.216C328.16 465.82 320.36 473.745 313.467 481.867C307.569 488.815 302.16 496.346 295.893 502.949Q306.16 515.94 317.235 528.249C322.961 534.725 336.857 548.686 340.123 555.728C339.941 557.578 339.601 559.01 338.186 560.354C333.991 564.336 324.283 562.877 318.831 562.639C314.187 558.291 310.334 552.918 306.26 548.037L284.183 521.791C274.42 535.435 264.263 548.98 253.66 561.982C248.906 562.188 238.343 563.681 234.679 560.506C233.324 559.332 232.636 557.368 232.581 555.599C232.531 553.959 232.985 552.651 233.882 551.305C237.873 545.317 243.558 539.835 248.102 534.198C256.944 523.232 265.18 511.385 274.983 501.257L248.168 470.061C244.047 465.173 239.287 460.251 235.82 454.879C234.967 453.557 234.269 452.187 234.199 450.585C234.12 448.773 234.834 446.73 236.143 445.451C239.756 441.921 248.637 442.966 253.371 442.985C258.982 448.296 263.6 454.897 268.432 460.923Q277.455 472.036 286.649 483.008C291.569 475.025 310.715 450.019 317.448 444.469C318.689 443.446 320.061 443.015 321.591 442.598Z"/>
	<path fill="#00AEED" d="M320.169 445.714C322.939 445.386 325.71 444.982 328.504 445.047C330.999 446.861 333.512 448.72 334.819 451.6C334.808 453.324 332.349 455.745 331.22 457.168C324.282 465.907 316.556 474.046 309.434 482.642C304.895 488.12 300.641 494.733 295.625 499.702C295.312 500.012 294.965 500.287 294.629 500.573L293.768 500.324L294.25 500.129C291.583 498.883 289.691 496.868 287.257 495.293C285.319 494.038 282.552 492.371 280.136 493.175C278.983 493.559 278.263 494.525 277.692 495.539C277.583 495.733 277.507 495.947 277.381 496.13C276.605 497.251 276.808 498.127 276.755 499.497C270.528 492.86 236.733 454.8 236.867 450.007C236.893 449.049 238.112 447.655 238.888 447.112C242.29 444.735 248.815 445.791 252.738 445.927C258.971 453.263 283.185 480.89 286.263 487.451C292.009 479.431 298.233 471.794 304.371 464.075C309.324 457.847 314.167 450.956 320.169 445.714Z"/>
	<defs>
		<linearGradient id="gradient_4" gradientUnits="userSpaceOnUse" x1="286.6813" y1="562.15344" x2="282.01892" y2="492.93137">
			<stop offset="0" stop-color="#0C5BBE"/>
			<stop offset="1" stop-color="#129DF7"/>
		</linearGradient>
	</defs>
	<path fill="url(#gradient_4)" d="M276.755 499.497C276.808 498.127 276.605 497.251 277.381 496.13C277.507 495.947 277.583 495.733 277.692 495.539C278.263 494.525 278.983 493.559 280.136 493.175C282.552 492.371 285.319 494.038 287.257 495.293C289.691 496.868 291.583 498.883 294.25 500.129L293.768 500.324L294.629 500.573C294.137 501.209 293.686 501.853 293.232 502.515C294.945 506.208 298.704 509.744 301.356 512.875C307.091 519.646 336.721 551.626 338.108 556.8C337.835 557.653 337.614 558.026 336.932 558.65C333.582 561.713 324.376 560.514 320.069 560.427C314.89 555.288 310.339 549.468 305.652 543.884Q294.562 530.879 283.93 517.497C276.999 530.608 262.23 548.163 252.59 559.984C248.263 560.055 243.099 560.628 238.905 559.689C237.055 559.276 235.67 558.575 234.653 556.935C234.642 554.949 235.33 553.473 236.367 551.794C239.339 546.983 244.018 542.696 247.674 538.352C254.312 530.466 260.267 522.043 266.737 514.022C270.188 509.743 274.478 505.765 277.536 501.242L276.755 499.497Z"/>
	<path fill="white" d="M201.854 478.494C201.912 470.937 200.668 454.637 202.102 448.106C202.519 446.21 203.446 444.34 204.856 442.986C208.101 439.871 213.615 439.662 217.881 439.95C221.381 440.185 224.563 441.008 226.879 443.818C228.636 445.95 229.276 448.677 229.484 451.375C229.831 455.877 229.475 460.631 229.412 465.151Q229.224 477.09 229.298 489.03Q229.392 511.439 229.241 533.848C229.192 541.206 229.702 549.116 228.818 556.414C228.483 559.178 228.055 561.741 225.725 563.539C222.338 566.154 214.185 565.766 210.181 564.982C207.593 564.475 205.344 563.341 203.936 561.033C202.932 559.388 202.538 557.502 202.363 555.604C201.932 550.955 202.537 546.052 202.435 541.357C202.148 528.11 201.619 514.852 202.067 501.603C202.068 499.394 202.026 497.21 201.88 495.006L201.31 494.61C200.513 497.67 199.63 500.697 198.35 503.596C190.883 520.511 177.459 527.718 161.006 534.054C161.069 541.271 162.316 549.851 161.019 556.894C160.536 559.517 159.247 561.865 156.967 563.326C153.027 565.849 145.51 565.579 141.088 564.557C137.576 563.745 136.002 561.904 134.137 558.949C133.32 544.048 133.98 528.754 133.974 513.81C133.965 491.091 133.585 468.298 134.102 445.589C135.501 443.383 136.994 442.056 139.136 440.568C153.105 440.031 166.629 439.25 179.164 446.574C190.615 453.264 197.673 463.899 200.952 476.525L201.363 478.51L201.854 478.494Z"/>
	<path fill="#251E20" d="M204.929 448.449C205.474 446.519 206.073 444.984 207.948 444.011C210.847 442.506 219.498 442.431 222.535 443.601C224.07 444.193 225.187 445.434 225.77 446.952C226.438 448.69 226.583 450.646 226.651 452.492C227.026 462.626 226.794 557.148 225.822 559.439C225.304 560.662 223.839 561.619 222.593 561.927C219.7 562.641 210.573 562.908 208.068 561.371C207.489 561.016 207.006 560.53 206.516 560.066C205.762 558.918 205.395 557.904 205.245 556.542C204.607 550.75 205.042 544.602 205.009 538.758C204.957 529.221 204.639 519.633 204.912 510.101C204.46 504.952 204.659 499.696 204.662 494.529Q204.749 488.015 204.578 481.503C204.847 470.666 203.591 459.156 204.929 448.449Z"/>
	<path fill="#00AEED" d="M207.148 479.453C207.125 474.928 206.056 449.299 208.502 447.155C210.609 445.308 216.958 445.727 219.658 446.022C220.737 446.14 222.47 446.582 223.153 447.473C225.372 450.365 224.436 480.813 224.052 485.739L223.268 486.486L223.325 487.15Q223.686 491.421 223.426 495.699C222.47 495.072 222.964 495.504 222.296 494.668C221.171 493.258 218.314 491.555 216.509 491.252C214.429 490.902 210.767 492.51 208.732 493.157C207.996 491.255 208.245 489.262 207.404 487.445C206.889 485.124 207.19 481.874 207.148 479.453Z"/>
	<defs>
		<linearGradient id="gradient_5" gradientUnits="userSpaceOnUse" x1="210.69707" y1="558.67334" x2="220.36166" y2="491.92105">
			<stop offset="0" stop-color="#0957BD"/>
			<stop offset="1" stop-color="#12A1F6"/>
		</linearGradient>
	</defs>
	<path fill="url(#gradient_5)" d="M207.404 487.445C208.245 489.262 207.996 491.255 208.732 493.157C210.767 492.51 214.429 490.902 216.509 491.252C218.314 491.555 221.171 493.258 222.296 494.668C222.964 495.504 222.47 495.072 223.426 495.699Q223.686 491.421 223.325 487.15L223.268 486.486L224.052 485.739C224.764 497.568 224.31 509.678 224.348 521.537C224.388 534.098 224.9 546.903 224.095 559.433C219.337 559.843 213.101 561.218 208.696 559.042C207.559 557.817 207.475 556.879 207.266 555.3C207.968 549.38 207.509 543.026 207.467 537.053L207.213 504.01Q207.116 495.725 207.404 487.445Z"/>
	<path fill="#251E20" d="M158.221 531.531C158.1 537.638 159.408 552.334 157.948 557.184C157.376 559.084 156.312 560.587 154.503 561.478C151.657 562.88 143.193 562.957 140.26 561.673C138.89 561.073 138.193 560.147 137.629 558.807C136.854 556.966 136.578 554.819 136.505 552.838C136.232 545.439 136.559 537.924 136.61 530.516L136.689 495.641C136.762 480.836 136.064 465.838 136.631 451.068C136.696 449.372 136.736 446.883 137.552 445.365C138.174 444.207 138.979 443.829 140.194 443.479C142.675 442.763 145.748 443.004 148.315 442.997C158.432 442.967 168.032 443.43 177.117 448.367C187.991 454.276 194.967 464.571 198.349 476.265L199.252 482.02C199.399 485.495 199.31 488.831 199.035 492.297Q198.703 494.307 198.181 496.277Q197.659 498.247 196.951 500.158Q196.244 502.069 195.357 503.904Q194.471 505.739 193.414 507.481C185.423 520.745 172.911 527.857 158.221 531.531Z"/>
	<defs>
		<linearGradient id="gradient_6" gradientUnits="userSpaceOnUse" x1="156.71689" y1="560.80035" x2="167.45856" y2="487.40891">
			<stop offset="0" stop-color="#095FC9"/>
			<stop offset="1" stop-color="#10ABF8"/>
		</linearGradient>
	</defs>
	<path fill="url(#gradient_6)" d="M139.049 480.833L139.151 481.322C139.529 483.197 139.505 487.256 140.519 488.694C144.789 487.788 146.68 484.518 151.446 485.501C151.671 485.547 151.901 485.567 152.121 485.631C152.922 485.867 153.557 486.537 154.165 487.072L154.98 486.668L155.106 483.584C155.171 483.879 155.23 484.175 155.3 484.469C155.468 485.173 155.691 485.873 155.89 486.57C155.912 494.894 155.783 503.248 155.988 511.567C164.054 510.413 170.938 506.05 175.851 499.548C177.938 496.784 179.665 493.512 180.413 490.112C181.059 491.413 181.353 492.386 182.862 492.809C187.392 494.077 190.015 492.754 193.49 496.641C194.598 495.998 194.693 494.333 195.815 494.02C195.179 499.332 192.559 504.556 189.506 508.881C181.438 520.311 169.637 527.107 155.952 529.421C155.994 536.096 157.362 553.398 155.016 558.609C153.251 560.165 151.135 560.064 148.904 560.122C146.033 560.198 142.067 560.659 139.973 558.214C138.804 556.848 138.451 554.933 138.331 553.195C137.903 547.039 138.742 540.347 138.752 534.12Q138.739 507.475 139.049 480.833Z"/>
	<path fill="#00AEED" d="M139.166 446.004C153.655 444.576 170.522 445.128 182.26 454.839Q183.032 455.489 183.771 456.176Q184.51 456.864 185.215 457.587Q185.919 458.31 186.586 459.067Q187.254 459.824 187.883 460.613Q188.512 461.402 189.102 462.222Q189.691 463.041 190.239 463.889Q190.787 464.736 191.292 465.61Q191.798 466.484 192.259 467.381Q192.721 468.279 193.138 469.198Q193.554 470.118 193.925 471.056Q194.295 471.995 194.619 472.951Q194.942 473.907 195.218 474.878Q195.494 475.849 195.721 476.833Q195.949 477.816 196.127 478.809Q196.306 479.803 196.435 480.804Q196.564 481.805 196.643 482.811C196.934 486.437 196.833 490.52 195.815 494.02C194.693 494.333 194.598 495.998 193.49 496.641C190.015 492.754 187.392 494.077 182.862 492.809C181.353 492.386 181.059 491.413 180.413 490.112C179.665 493.512 177.938 496.784 175.851 499.548C170.938 506.05 164.054 510.413 155.988 511.567C155.783 503.248 155.912 494.894 155.89 486.57C155.691 485.873 155.468 485.173 155.3 484.469C155.23 484.175 155.171 483.879 155.106 483.584L154.98 486.668L154.165 487.072C153.557 486.537 152.922 485.867 152.121 485.631C151.901 485.567 151.671 485.547 151.446 485.501C146.68 484.518 144.789 487.788 140.519 488.694C139.505 487.256 139.529 483.197 139.151 481.322L139.049 480.833C138.791 469.389 138.39 457.408 139.166 446.004Z"/>
	<path fill="#251E20" d="M155.986 461.845C163.56 462.456 170 465.4 174.975 471.311C179.39 476.558 181.233 482.719 180.485 489.498L180.413 490.112C179.665 493.512 177.938 496.784 175.851 499.548C170.938 506.05 164.054 510.413 155.988 511.567C155.783 503.248 155.912 494.894 155.89 486.57L155.986 461.845Z"/>
	<path fill="white" d="M158.453 464.144C163.156 465.26 167.509 467.404 171.071 470.712C175.386 474.718 178.136 480.177 178.188 486.12C178.246 492.674 175.132 497.362 170.827 501.926C166.828 505.212 163.24 507.421 158.42 509.312C158.27 494.263 158.438 479.196 158.453 464.144Z"/>
	<path fill="#FBB041" d="M161.919 468.086C164.171 469.087 166.267 470.125 168.181 471.707C172.246 475.067 175.165 480.06 175.493 485.382C175.839 491.007 173.285 495.147 169.661 499.124C167.159 501.653 164.462 503.709 161.514 505.683Q161.441 486.881 161.919 468.086Z"/>
	<path fill="white" d="M680.806 495.393C681.447 485.622 679.621 449.683 682.08 443.777C682.694 442.303 684.07 441.215 685.521 440.63C692.795 437.694 708.904 440.683 716.033 443.635C728.385 448.75 738.119 458.075 743.18 470.537C746.737 479.295 747.197 491.583 743.323 500.297C739.659 508.539 732.16 515.752 723.772 519.023C728.827 527.162 734.312 535.103 739.686 543.036C741.959 546.393 744.946 549.747 746.692 553.387C747.431 554.927 747.976 556.689 747.785 558.415C747.566 560.395 746.438 562.002 744.849 563.155C740.426 566.367 732.211 566.152 727.003 565.21C723.603 564.595 722.521 563.488 720.605 560.671C715.92 553.852 711.547 546.844 707.157 539.834C707.361 545.402 709.25 557.634 706.062 562.086C704.631 564.084 702.336 565.038 699.975 565.415C695.622 566.11 687.865 566.317 684.289 563.461C682.581 562.097 681.757 560.155 681.404 558.043C680.657 553.574 681.444 548.311 681.504 543.77C681.636 533.714 681.773 523.407 680.749 513.394C679.268 519.372 677.172 525.401 674.51 530.956C667.42 545.753 652.494 557.189 637.189 562.505C622.963 567.447 607.313 565.596 593.942 558.989C577.42 550.824 566.913 536.296 561.153 519.128C560.616 521.443 560.283 523.928 558.565 525.7C554.608 529.781 545.411 528.294 540.044 528.298C540.093 538.807 540.287 549.341 539.948 559.847Q539.601 560.393 539.237 560.927C537.679 563.195 535.849 564.471 533.089 564.896C528.799 565.556 520.766 565.765 517.159 562.949C515.465 561.626 514.672 560.19 514.405 558.067C513.559 551.336 513.928 544.313 513.941 537.532L513.95 506.051L513.962 468.97C513.967 461.963 513.615 454.749 514.255 447.779C514.415 446.03 514.71 444.55 515.89 443.181C517.933 440.81 520.8 440.431 523.742 440.181C531.405 439.856 539.152 440.206 546.826 440.165C552.86 440.133 559.614 439.365 565.566 440.289C568.255 440.707 570.813 441.809 572.412 444.1C575.697 448.803 574.204 457.968 573.174 463.295C582.511 452.356 593.57 445.065 607.672 441.811Q609.062 441.494 610.465 441.246Q611.869 440.997 613.283 440.819Q614.698 440.64 616.119 440.531Q617.54 440.422 618.965 440.383Q620.39 440.344 621.815 440.375Q623.24 440.406 624.662 440.507Q626.084 440.608 627.499 440.779Q628.914 440.95 630.319 441.191Q631.724 441.431 633.116 441.741Q634.507 442.05 635.882 442.427Q637.256 442.805 638.611 443.249Q639.965 443.694 641.296 444.204Q642.627 444.715 643.931 445.291Q645.235 445.866 646.509 446.505Q647.783 447.144 649.025 447.845Q650.266 448.546 651.471 449.307C667.957 459.735 676.657 476.843 680.806 495.393Z"/>
	<path fill="#FBB041" d="M569.628 466.753L570.417 466.702C570.285 469.764 564.382 476.937 563.013 480.766C561.301 485.559 559.848 490.63 559.374 495.711C559.125 498.387 559.64 501.399 558.896 503.965C557.463 503.446 557.114 502.273 555.989 501.733C553.585 500.581 548.731 501.085 545.98 501.069C544.053 501.109 542.439 501.083 540.567 500.604C539.18 495.844 540.153 473.442 540.163 467.035C549.915 467.167 559.909 467.608 569.628 466.753Z"/>
	<path fill="#251E20" d="M521.889 443.175C527.587 442.892 566.851 441.842 569.674 444.597C570.984 445.875 571.425 448.485 571.533 450.21C571.752 453.707 572.554 459.436 569.981 462.118C565.899 466.372 544.175 464.392 537.485 464.366L537.441 503.967C541.635 503.895 553.694 502.518 556.777 505.443C558.065 506.666 558.573 508.857 558.784 510.543C559.27 514.431 559.193 521.024 556.54 524.063C555.204 525.593 553.492 525.568 551.625 525.679C546.927 525.715 542.22 525.613 537.521 525.572C537.502 531.05 538.912 557.373 536.141 560.394C534.056 562.668 526.471 562.352 523.486 562.084C521.111 561.871 519.425 561.381 517.853 559.528C516.031 552.77 516.13 448.369 517.415 446.123C518.466 444.288 520.002 443.815 521.889 443.175Z"/>
	<path fill="#00AEED" d="M519.065 477.302C518.611 469.04 518.374 459.748 519.034 451.509C519.148 450.076 519.25 447.575 520.581 446.742C523.984 444.614 562.761 445.031 567.683 446.184C568.766 447.662 568.979 449.097 569.101 450.887C569.281 453.528 569.644 459.376 567.552 461.193C565.295 463.153 539.942 461.999 535.377 461.973C535.863 476.609 535.57 491.385 535.515 506.032C541.197 505.974 550.237 504.699 555.491 506.874C556.748 508.845 556.621 516.31 556.103 518.684C555.758 520.262 554.918 521.766 553.508 522.621C549.336 525.148 540.308 523.372 535.481 523.169C535.489 535.061 536.18 547.508 535.268 559.341C530.661 559.575 525.187 560.356 520.739 559.11C519.539 557.876 519.482 556.245 519.318 554.562C518.404 545.171 519.037 535.179 519.02 525.732C518.99 510.074 518.697 494.351 519.012 478.7Q519.025 478 519.065 477.302Z"/>
	<path fill="#251E20" d="M688.368 442.615C697.987 442.353 706.569 442.618 715.585 446.406C726.767 451.105 735.891 459.295 740.391 470.721C743.808 479.393 744.436 490.477 740.653 499.136C736.603 508.406 728.922 514.463 719.66 517.997C723.776 524.756 744.944 552.793 744.888 558.086C744.874 559.321 744.592 559.721 743.695 560.537C740.676 563.284 734.245 562.464 730.375 562.421L725.273 562.295C719.27 555.591 709.348 538.225 704.413 529.996C704.182 538.27 705.304 553.186 703.821 560.431C702.763 561.421 701.925 561.88 700.49 562.036C696.241 562.498 688.495 563.463 684.947 560.63C684.191 559.13 684.188 557.414 684.131 555.763C683.395 534.292 684.042 512.588 684.002 491.094C683.985 482.045 682.731 451.485 684.653 444.729C685.715 443.415 686.832 443.128 688.368 442.615Z"/>
	<defs>
		<linearGradient id="gradient_7" gradientUnits="userSpaceOnUse" x1="710.97583" y1="560.89856" x2="717.42737" y2="486.22159">
			<stop offset="0" stop-color="#0D5FC2"/>
			<stop offset="1" stop-color="#16ACF7"/>
		</linearGradient>
	</defs>
	<path fill="url(#gradient_7)" d="M686.539 482.199C687.174 484.583 687.072 486.917 687.064 489.362C689.088 487.633 691.039 486.193 693.318 484.819L698.287 484.789L700.847 486.984L701.367 486.684C701.54 485.405 701.653 484.091 701.951 482.835Q702.169 493.981 702.064 505.128C711.343 502.907 717.245 500.008 723.29 492.451L722.55 494.996C723.185 496.073 723.243 496.224 724.557 496.484C724.718 496.515 725.656 496.562 725.796 496.572C727.107 496.66 728.225 496.921 729.083 498.015C729.489 498.533 729.298 498.362 729.167 499.108C728.922 500.497 729.682 502.724 730.563 503.795C730.983 504.305 730.95 504.145 731.672 504.246C732.735 504.395 732.313 504.323 733.364 504.558L733.734 505.264C729.424 511.301 723.116 514.256 716.423 516.851C720.76 524.359 742.443 552.594 742.898 558.154C742.662 558.393 742.458 558.671 742.188 558.871C739.055 561.192 730.414 560.128 726.55 560.055C718.714 550.614 708.078 533.328 702.481 522.213C702.503 534.788 702.095 547.392 701.992 559.972Q694.276 560.092 686.56 559.977C686.019 534.161 685.873 508.009 686.539 482.199Z"/>
	<path fill="#00AEED" d="M686.557 445.695C700.593 443.753 714.55 446.246 725.994 454.994Q726.752 455.572 727.479 456.188Q728.207 456.803 728.903 457.454Q729.6 458.105 730.262 458.79Q730.925 459.475 731.553 460.193Q732.18 460.91 732.771 461.658Q733.363 462.405 733.916 463.182Q734.469 463.958 734.982 464.761Q735.495 465.564 735.968 466.392Q736.441 467.219 736.872 468.069Q737.302 468.92 737.69 469.79Q738.078 470.661 738.422 471.55Q738.766 472.439 739.064 473.344Q739.363 474.249 739.617 475.168Q739.87 476.087 740.077 477.017Q740.284 477.948 740.444 478.887Q740.605 479.827 740.718 480.773C741.768 489.273 740.014 497.37 734.628 504.172Q734.189 504.724 733.734 505.264L733.364 504.558C732.313 504.323 732.735 504.395 731.672 504.246C730.95 504.145 730.983 504.305 730.563 503.795C729.682 502.724 728.922 500.497 729.167 499.108C729.298 498.362 729.489 498.533 729.083 498.015C728.225 496.921 727.107 496.66 725.796 496.572C725.656 496.562 724.718 496.515 724.557 496.484C723.243 496.224 723.185 496.073 722.55 494.996L723.29 492.451C717.245 500.008 711.343 502.907 702.064 505.128Q702.169 493.981 701.951 482.835C701.653 484.091 701.54 485.405 701.367 486.684L700.847 486.984L698.287 484.789L693.318 484.819C691.039 486.193 689.088 487.633 687.064 489.362C687.072 486.917 687.174 484.583 686.539 482.199C686.086 470.078 686.472 457.829 686.557 445.695Z"/>
	<path fill="#251E20" d="M701.951 482.835C702.158 476.752 701.161 469.955 702.198 464.017C703.155 463.295 703.206 463.335 704.354 463.511C710.659 464.476 718.411 470.483 721.832 475.63C723.959 478.832 725.845 483.86 724.797 487.739C724.365 489.339 723.647 490.829 723.29 492.451C717.245 500.008 711.343 502.907 702.064 505.128Q702.169 493.981 701.951 482.835Z"/>
	<path fill="white" d="M704.487 465.65C708.448 467.247 712.491 469.578 715.712 472.39C719.29 475.514 722.371 479.811 722.504 484.727C722.637 489.606 720.019 492.843 716.814 496.135C712.941 499.105 709.055 500.717 704.509 502.408L704.487 465.65Z"/>
	<path fill="#FBB041" d="M707.569 470.262C709.687 471.471 711.741 472.68 713.59 474.292C716.601 476.916 719.341 480.47 719.557 484.608C719.749 488.296 718.026 490.751 715.686 493.397C713.174 495.528 710.449 496.938 707.473 498.267L707.569 470.262Z"/>
	<path fill="#251E20" d="M615.351 443.197Q616.598 443.074 617.849 443.008Q619.099 442.942 620.352 442.934Q621.605 442.925 622.856 442.975Q624.108 443.024 625.356 443.131Q626.604 443.238 627.846 443.402Q629.088 443.567 630.321 443.788Q631.554 444.009 632.775 444.287Q633.997 444.564 635.204 444.898Q636.412 445.231 637.602 445.62Q638.793 446.009 639.965 446.452Q641.137 446.895 642.287 447.392Q643.437 447.888 644.563 448.437Q645.689 448.986 646.788 449.586Q647.888 450.187 648.958 450.837Q650.029 451.487 651.069 452.186Q652.109 452.884 653.115 453.63C666.169 463.175 675.233 478.742 677.595 494.711C679.796 509.589 675.475 526.339 666.376 538.308C656.135 551.78 641.557 559.986 624.883 562.244Q623.551 562.347 622.215 562.388Q620.88 562.429 619.544 562.408Q618.208 562.386 616.875 562.303Q615.541 562.22 614.213 562.074Q612.885 561.929 611.565 561.722Q610.245 561.515 608.936 561.247Q607.627 560.979 606.332 560.65Q605.037 560.321 603.759 559.932Q602.481 559.543 601.222 559.096Q599.963 558.648 598.727 558.142Q597.49 557.636 596.279 557.073Q595.067 556.51 593.883 555.891Q592.698 555.273 591.544 554.6Q590.39 553.926 589.269 553.2Q588.147 552.474 587.061 551.697Q585.974 550.919 584.925 550.092C572.651 540.377 564.179 525.849 562.481 510.246C560.609 493.042 564.847 477.909 575.815 464.394C585.671 452.249 599.887 444.858 615.351 443.197Z"/>
	<path fill="#00AEED" d="M567.523 482.975C573.309 470.242 581.179 459.589 593.544 452.611Q594.71 451.951 595.907 451.349Q597.105 450.747 598.33 450.205Q599.556 449.663 600.807 449.183Q602.057 448.702 603.331 448.283Q604.604 447.865 605.896 447.51Q607.188 447.155 608.496 446.864Q609.804 446.573 611.125 446.347Q612.446 446.121 613.776 445.961Q615.106 445.8 616.443 445.705Q617.78 445.611 619.119 445.582Q620.459 445.554 621.799 445.591Q623.138 445.629 624.474 445.733Q625.81 445.837 627.139 446.006Q628.469 446.176 629.788 446.411Q631.107 446.646 632.413 446.945Q633.719 447.245 635.009 447.609Q636.307 447.979 637.586 448.413Q638.864 448.847 640.119 449.343Q641.375 449.84 642.604 450.397Q643.834 450.955 645.034 451.572Q646.235 452.19 647.403 452.866Q648.572 453.542 649.706 454.274Q650.839 455.007 651.936 455.795Q653.032 456.583 654.088 457.424Q655.144 458.264 656.158 459.156Q657.171 460.048 658.139 460.989Q659.108 461.93 660.028 462.917Q660.949 463.904 661.82 464.936Q662.691 465.968 663.51 467.041Q664.329 468.114 665.094 469.226Q665.859 470.338 666.568 471.487Q667.277 472.636 667.929 473.818C666.263 474.172 665.443 473.868 663.933 472.983C661.717 471.683 660.317 469.66 657.702 469.076C656.172 469.641 655.495 470.334 654.79 471.82C653.586 474.356 653.557 475.839 653.133 478.438C653.067 478.842 652.76 479.266 652.544 479.605C645.396 470.392 637.509 464.188 625.638 462.707C614.608 461.331 603.525 464.212 594.821 471.19C590.054 475.013 587.598 479.852 584.279 484.797C583.882 485.23 583.334 485.928 582.833 486.273C579.909 488.283 576.735 484.177 573.345 483.885C572.976 484.097 572.348 484.473 571.968 484.618C570.778 485.071 570.305 484.793 569.163 484.4L568.826 482.937L567.523 482.975Z"/>
	<defs>
		<linearGradient id="gradient_8" gradientUnits="userSpaceOnUse" x1="623.18005" y1="558.90131" x2="617.97583" y2="470.29196">
			<stop offset="0" stop-color="#0D5FBF"/>
			<stop offset="1" stop-color="#15B9FF"/>
		</linearGradient>
	</defs>
	<path fill="url(#gradient_8)" d="M652.544 479.605C652.76 479.266 653.067 478.842 653.133 478.438C653.557 475.839 653.586 474.356 654.79 471.82C655.495 470.334 656.172 469.641 657.702 469.076C660.317 469.66 661.717 471.683 663.933 472.983C665.443 473.868 666.263 474.172 667.929 473.818C675.644 485.533 677.399 500.86 674.644 514.384C671.617 529.238 663.125 542.342 650.396 550.701C638.237 558.686 623.847 561.951 609.515 558.988C594.13 555.807 581.342 546.482 572.9 533.329C565.063 521.119 562.293 504.421 565.41 490.251Q566.255 486.552 567.523 482.975L568.826 482.937L569.163 484.4C570.305 484.793 570.778 485.071 571.968 484.618C572.348 484.473 572.976 484.097 573.345 483.885C576.735 484.177 579.909 488.283 582.833 486.273C583.334 485.928 583.882 485.23 584.279 484.797Q583.174 487.782 582.23 490.822C579.094 501.231 579.568 512.818 584.804 522.468C589.741 531.567 598.515 538.851 608.496 541.699Q609.436 541.963 610.388 542.18Q611.34 542.397 612.301 542.567Q613.263 542.737 614.232 542.859Q615.201 542.981 616.174 543.055Q617.148 543.129 618.124 543.154Q619.1 543.18 620.076 543.157Q621.052 543.135 622.026 543.064Q623 542.993 623.969 542.874Q624.938 542.755 625.9 542.588Q626.862 542.421 627.815 542.207Q628.768 541.993 629.708 541.732Q630.649 541.471 631.576 541.163Q632.503 540.856 633.413 540.503Q634.324 540.15 635.216 539.753Q636.107 539.356 636.979 538.915Q637.85 538.474 638.698 537.99C648.059 532.654 655.741 523.809 658.561 513.299C661.829 501.118 658.754 490.194 652.544 479.605Z"/>
	<path fill="#251E20" d="M584.279 484.797C587.598 479.852 590.054 475.013 594.821 471.19C603.525 464.212 614.608 461.331 625.638 462.707C637.509 464.188 645.396 470.392 652.544 479.605C658.754 490.194 661.829 501.118 658.561 513.299C655.741 523.809 648.059 532.654 638.698 537.99Q637.85 538.474 636.979 538.915Q636.108 539.356 635.216 539.753Q634.324 540.15 633.413 540.503Q632.503 540.856 631.576 541.163Q630.649 541.471 629.708 541.732Q628.768 541.993 627.815 542.207Q626.862 542.421 625.9 542.588Q624.938 542.755 623.969 542.874Q623 542.993 622.026 543.064Q621.052 543.135 620.076 543.157Q619.1 543.18 618.124 543.154Q617.148 543.129 616.174 543.055Q615.201 542.981 614.232 542.859Q613.263 542.737 612.301 542.567Q611.34 542.397 610.388 542.18Q609.436 541.963 608.496 541.699C598.515 538.851 589.741 531.567 584.804 522.468C579.568 512.818 579.094 501.231 582.23 490.822Q583.174 487.782 584.279 484.797Z"/>
	<path fill="white" d="M617.867 464.689C626.268 464.13 634.913 466.387 641.642 471.531C649.982 477.905 655.857 488.142 657.176 498.547Q657.292 499.472 657.361 500.402Q657.43 501.331 657.452 502.264Q657.474 503.195 657.449 504.127Q657.425 505.059 657.353 505.989Q657.282 506.919 657.164 507.843Q657.045 508.768 656.881 509.686Q656.717 510.603 656.506 511.512Q656.296 512.42 656.04 513.316Q655.784 514.213 655.484 515.095Q655.183 515.978 654.839 516.844Q654.494 517.711 654.107 518.558Q653.719 519.406 653.289 520.234Q652.859 521.061 652.389 521.866Q651.918 522.67 651.407 523.45Q650.897 524.23 650.347 524.984Q649.798 525.737 649.212 526.462C642.206 535.233 633.203 540.023 622.128 541.276C613.059 541.659 604.135 539.229 596.915 533.612Q596.184 533.055 595.482 532.462Q594.78 531.869 594.109 531.241Q593.437 530.614 592.797 529.954Q592.157 529.294 591.552 528.604Q590.945 527.913 590.375 527.193Q589.804 526.472 589.269 525.725Q588.735 524.977 588.238 524.204Q587.742 523.431 587.284 522.633Q586.827 521.836 586.41 521.018Q585.992 520.199 585.616 519.36Q585.24 518.522 584.907 517.665Q584.573 516.809 584.282 515.937Q583.991 515.066 583.744 514.18Q583.497 513.295 583.294 512.399Q583.091 511.503 582.934 510.597Q582.776 509.692 582.663 508.78Q582.539 507.772 582.466 506.76Q582.392 505.747 582.369 504.732Q582.345 503.717 582.373 502.702Q582.4 501.687 582.477 500.675Q582.555 499.663 582.682 498.656Q582.81 497.648 582.987 496.649Q583.164 495.649 583.391 494.66Q583.618 493.67 583.893 492.693Q584.169 491.716 584.493 490.753Q584.816 489.791 585.187 488.846Q585.558 487.901 585.976 486.976Q586.393 486.05 586.856 485.147Q587.319 484.243 587.826 483.363Q588.333 482.484 588.883 481.631Q589.433 480.777 590.025 479.952Q590.617 479.128 591.249 478.333C598.114 469.861 607.211 465.856 617.867 464.689Z"/>
	<path fill="#FBB041" d="M615.919 467.618C623.155 466.794 630.481 467.772 636.838 471.466C645.003 476.211 651.143 484.858 653.436 493.968Q653.659 494.843 653.838 495.728Q654.018 496.613 654.152 497.506Q654.287 498.399 654.376 499.297Q654.466 500.196 654.511 501.097Q654.555 501.999 654.554 502.902Q654.554 503.805 654.508 504.707Q654.461 505.609 654.37 506.507Q654.279 507.405 654.143 508.298Q654.007 509.19 653.826 510.075Q653.646 510.96 653.421 511.834Q653.196 512.709 652.928 513.571Q652.659 514.433 652.348 515.281Q652.037 516.128 651.684 516.959Q651.33 517.79 650.936 518.602Q650.541 519.415 650.107 520.206Q649.672 520.997 649.198 521.766C643.443 531.147 634.811 536.023 624.321 538.49C615.995 539.078 608.369 537.669 601.196 533.252Q600.464 532.794 599.755 532.301Q599.047 531.807 598.364 531.279Q597.681 530.751 597.025 530.19Q596.368 529.629 595.741 529.036Q595.113 528.443 594.516 527.819Q593.918 527.196 593.353 526.544Q592.787 525.892 592.254 525.212Q591.721 524.533 591.223 523.828Q590.724 523.123 590.261 522.394Q589.798 521.665 589.372 520.915Q588.945 520.164 588.557 519.393Q588.168 518.622 587.818 517.832Q587.468 517.043 587.158 516.237Q586.847 515.432 586.577 514.612Q586.307 513.792 586.078 512.959Q585.849 512.127 585.661 511.284Q585.472 510.417 585.325 509.541Q585.178 508.666 585.075 507.785Q584.971 506.903 584.911 506.018Q584.85 505.132 584.833 504.245Q584.816 503.357 584.842 502.47Q584.868 501.583 584.937 500.698Q585.007 499.813 585.119 498.933Q585.232 498.053 585.388 497.179Q585.543 496.305 585.741 495.44Q585.939 494.575 586.179 493.72Q586.419 492.866 586.701 492.024Q586.982 491.182 587.304 490.355Q587.627 489.528 587.989 488.718Q588.351 487.908 588.753 487.116Q589.154 486.325 589.594 485.554Q590.033 484.783 590.51 484.034C596.793 474.339 604.867 469.974 615.919 467.618Z"/>
</svg>
